<svg id="svg" version="1.1" xmlns="http://www.w3.org/2000/svg" xmlns:xlink="http://www.w3.org/1999/xlink" width="400" height="400" viewBox="0, 0, 400,400"><g id="svgg"><path id="path0" d="M102.303 106.539 C 102.303 107.660,102.345 108.119,102.395 107.558 C 102.446 106.998,102.446 106.080,102.395 105.519 C 102.345 104.958,102.303 105.417,102.303 106.539 M299.460 108.578 C 299.296 108.776,299.060 108.938,298.936 108.938 C 296.833 108.938,293.488 112.269,291.521 116.321 C 290.706 118.001,289.829 119.608,289.572 119.891 C 289.112 120.399,289.107 121.493,289.187 204.834 L 289.267 289.262 290.345 291.225 C 294.704 299.171,298.975 301.790,306.179 300.936 C 309.492 300.543,315.297 296.883,315.297 295.187 C 315.297 295.055,315.665 294.506,316.115 293.967 C 316.565 293.428,317.294 292.257,317.735 291.365 L 318.536 289.742 318.724 279.304 C 319.140 256.189,318.789 121.181,318.310 119.896 C 316.162 114.135,311.838 108.938,309.191 108.938 C 309.018 108.938,308.743 108.776,308.578 108.578 C 308.333 108.283,307.513 108.218,304.019 108.218 C 300.525 108.218,299.705 108.283,299.460 108.578 M102.322 114.097 C 102.322 117.001,102.357 118.155,102.399 116.663 C 102.441 115.171,102.441 112.796,102.398 111.384 C 102.356 109.973,102.322 111.194,102.322 114.097 M363.707 155.188 C 364.796 155.232,366.578 155.232,367.666 155.188 C 368.755 155.143,367.864 155.107,365.687 155.107 C 363.509 155.107,362.618 155.143,363.707 155.188 M371.806 156.449 C 372.202 156.711,372.633 156.926,372.765 156.926 C 372.897 156.927,372.652 156.711,372.220 156.448 C 371.201 155.827,370.868 155.827,371.806 156.449 M356.155 158.706 C 355.063 159.816,354.169 160.866,354.169 161.039 C 354.169 161.213,354.347 161.088,354.565 160.761 C 355.182 159.834,356.835 158.141,357.864 157.380 C 358.379 157.000,358.652 156.689,358.471 156.689 C 358.290 156.689,357.248 157.597,356.155 158.706 M375.165 158.848 C 375.680 159.376,376.156 159.808,376.222 159.808 C 376.288 159.808,375.920 159.376,375.405 158.848 C 374.889 158.320,374.414 157.888,374.348 157.888 C 374.282 157.888,374.649 158.320,375.165 158.848 M377.702 162.633 C 377.850 163.060,378.070 163.469,378.190 163.543 C 378.310 163.617,378.279 163.374,378.121 163.003 C 377.697 162.007,377.388 161.735,377.702 162.633 M73.064 235.633 C 73.064 275.423,73.092 291.701,73.125 271.806 C 73.159 251.911,73.159 219.355,73.125 199.460 C 73.092 179.565,73.064 195.843,73.064 235.633 M378.627 164.427 C 378.957 165.273,379.601 166.431,379.603 166.183 C 379.604 165.911,378.640 163.887,378.509 163.887 C 378.458 163.887,378.511 164.130,378.627 164.427 M351.338 166.815 C 351.179 166.973,351.064 167.378,351.082 167.714 L 351.115 168.326 351.225 167.726 C 351.286 167.397,351.447 166.992,351.582 166.827 C 351.896 166.444,351.717 166.435,351.338 166.815 M379.621 166.647 C 379.621 166.779,379.775 167.157,379.964 167.487 C 380.153 167.816,380.307 167.978,380.307 167.846 C 380.307 167.714,380.153 167.337,379.964 167.007 C 379.775 166.677,379.621 166.515,379.621 166.647 M350.926 200.240 C 350.926 215.285,350.955 221.475,350.990 213.996 C 351.025 206.516,351.025 194.207,350.990 186.641 C 350.955 179.076,350.926 185.195,350.926 200.240 M380.187 225.195 C 380.188 228.362,380.222 229.625,380.263 228.001 C 380.305 226.376,380.305 223.785,380.263 222.242 C 380.221 220.699,380.187 222.028,380.187 225.195 M351.082 232.784 C 351.064 233.132,351.238 233.562,351.470 233.744 C 351.835 234.030,351.854 234.026,351.613 233.713 C 351.460 233.515,351.286 233.083,351.225 232.753 L 351.115 232.154 351.082 232.784 M351.817 234.553 C 352.199 235.493,352.754 236.593,352.847 236.593 C 353.025 236.593,352.517 235.391,352.102 234.829 C 351.892 234.545,351.764 234.421,351.817 234.553 M353.518 237.511 C 353.876 237.950,354.169 238.422,354.169 238.560 C 354.169 238.858,358.004 242.831,358.292 242.831 C 358.401 242.831,357.670 242.053,356.669 241.102 C 355.667 240.150,354.652 238.989,354.414 238.522 C 354.175 238.055,353.730 237.457,353.423 237.193 C 352.959 236.793,352.975 236.846,353.518 237.511 M365.687 244.271 L 361.248 244.408 365.613 244.459 C 368.321 244.491,370.034 244.420,370.126 244.271 C 370.208 244.139,370.241 244.054,370.200 244.083 C 370.159 244.111,368.128 244.196,365.687 244.271 M84.763 319.542 C 84.994 319.602,85.372 319.602,85.603 319.542 C 85.834 319.481,85.645 319.432,85.183 319.432 C 84.721 319.432,84.532 319.481,84.763 319.542 M194.668 353.146 C 195.299 353.196,196.271 353.195,196.828 353.145 C 197.385 353.094,196.869 353.054,195.681 353.055 C 194.493 353.055,194.037 353.096,194.668 353.146 " stroke="none" fill="#cb04fb" fill-rule="evenodd"></path><path id="path1" d="M250.573 8.091 C 250.938 8.146,251.478 8.144,251.773 8.087 C 252.068 8.030,251.770 7.985,251.110 7.987 C 250.450 7.989,250.208 8.035,250.573 8.091 M236.232 175.165 C 236.232 259.034,236.259 293.344,236.293 251.410 C 236.326 209.475,236.326 140.855,236.293 98.920 C 236.259 56.986,236.232 91.296,236.232 175.165 M265.733 42.232 C 265.733 45.993,265.766 47.531,265.806 45.651 C 265.847 43.770,265.847 40.693,265.806 38.812 C 265.766 36.932,265.733 38.470,265.733 42.232 M195.501 43.125 C 195.930 43.178,196.632 43.178,197.061 43.125 C 197.490 43.072,197.139 43.028,196.281 43.028 C 195.423 43.028,195.072 43.072,195.501 43.125 M200.706 43.799 C 200.962 43.993,201.279 44.151,201.411 44.151 C 201.543 44.151,201.442 43.993,201.186 43.799 C 200.929 43.605,200.612 43.447,200.480 43.447 C 200.348 43.447,200.450 43.605,200.706 43.799 M189.500 44.610 C 188.541 45.225,188.364 45.475,189.202 45.030 C 190.207 44.497,190.685 44.156,190.402 44.172 C 190.270 44.180,189.864 44.377,189.500 44.610 M203.839 45.314 C 204.235 45.556,205.234 46.478,206.059 47.361 C 207.623 49.037,207.996 49.252,206.942 47.870 C 206.222 46.927,203.788 44.871,203.392 44.872 C 203.242 44.872,203.443 45.071,203.839 45.314 M186.756 46.851 C 185.397 48.235,183.680 50.709,184.620 49.929 C 184.831 49.754,185.003 49.463,185.003 49.281 C 185.003 49.100,185.773 48.141,186.713 47.151 C 187.654 46.161,188.379 45.351,188.326 45.351 C 188.272 45.351,187.566 46.026,186.756 46.851 M207.594 49.311 C 207.852 50.043,210.481 55.188,210.651 55.293 C 210.890 55.440,208.363 50.246,207.858 49.550 C 207.666 49.286,207.547 49.179,207.594 49.311 M183.753 51.298 L 183.342 52.190 183.813 51.623 C 184.071 51.312,184.283 50.907,184.283 50.723 C 184.283 50.230,184.205 50.314,183.753 51.298 M182.382 54.017 C 182.372 54.230,182.148 54.679,181.884 55.014 C 181.620 55.350,181.404 55.813,181.404 56.042 C 181.404 56.272,181.678 55.944,182.013 55.314 C 182.349 54.683,182.573 54.046,182.512 53.898 C 182.451 53.750,182.393 53.804,182.382 54.017 M210.978 199.063 C 210.918 341.274,210.917 341.618,210.438 342.052 C 210.174 342.290,209.967 342.658,209.977 342.869 C 209.993 343.193,210.016 343.197,210.127 342.891 C 210.200 342.693,210.461 342.308,210.709 342.036 C 211.147 341.552,211.157 338.043,211.098 199.025 L 211.037 56.509 210.978 199.063 M84.583 90.373 C 83.929 90.472,82.752 90.933,81.824 91.454 C 81.626 91.566,81.060 91.875,80.566 92.143 C 78.472 93.277,77.011 95.142,74.925 99.340 L 72.959 103.299 73.104 205.759 C 73.221 288.946,73.307 308.286,73.558 308.578 C 73.728 308.776,73.941 309.231,74.030 309.588 C 74.119 309.946,74.344 310.364,74.529 310.517 C 74.714 310.671,74.865 310.980,74.865 311.204 C 74.865 311.428,75.218 312.036,75.649 312.554 C 76.081 313.073,76.578 313.782,76.756 314.131 C 77.402 315.403,79.750 317.401,81.824 318.444 L 83.863 319.470 87.702 319.480 C 90.765 319.487,91.687 319.412,92.262 319.108 C 92.657 318.898,93.607 318.413,94.373 318.031 C 95.743 317.347,98.860 314.450,98.860 313.861 C 98.860 313.705,99.216 313.128,99.650 312.578 C 100.084 312.028,100.697 311.038,101.012 310.378 C 101.327 309.718,101.789 308.898,102.039 308.556 C 102.683 307.675,102.609 102.830,101.965 102.065 C 101.759 101.820,101.130 100.648,100.568 99.460 C 100.006 98.272,99.449 97.139,99.330 96.941 C 99.211 96.743,98.940 96.238,98.729 95.820 C 98.230 94.835,95.745 92.466,94.730 92.009 C 94.296 91.814,93.779 91.563,93.581 91.452 C 91.732 90.413,91.558 90.375,88.431 90.320 C 86.711 90.290,84.979 90.314,84.583 90.373 M127.729 150.570 C 127.730 151.362,127.775 151.657,127.828 151.225 C 127.882 150.794,127.881 150.146,127.826 149.786 C 127.771 149.425,127.727 149.778,127.729 150.570 M127.720 153.569 C 127.720 154.163,127.767 154.406,127.824 154.109 C 127.881 153.812,127.881 153.326,127.824 153.029 C 127.767 152.732,127.720 152.975,127.720 153.569 M35.216 155.179 C 35.514 155.236,35.946 155.234,36.176 155.174 C 36.405 155.114,36.161 155.067,35.633 155.070 C 35.105 155.072,34.917 155.121,35.216 155.179 M361.128 155.609 C 360.963 155.807,360.667 155.969,360.470 155.969 C 359.011 155.969,355.120 159.556,353.935 161.993 C 353.525 162.837,353.099 163.689,352.989 163.887 C 352.879 164.085,352.424 164.990,351.979 165.898 L 351.170 167.548 351.170 200.211 L 351.170 232.873 352.192 234.946 C 352.755 236.086,353.383 237.158,353.590 237.329 C 353.796 237.500,354.162 238.026,354.403 238.496 C 355.071 239.801,357.942 242.433,359.503 243.171 C 360.260 243.529,360.941 243.923,361.017 244.046 C 361.095 244.173,363.052 244.271,365.484 244.271 C 369.881 244.271,369.951 244.260,371.686 243.280 C 371.884 243.168,372.450 242.857,372.945 242.589 C 374.072 241.979,376.340 239.730,376.872 238.694 C 377.094 238.264,377.583 237.537,377.959 237.078 C 378.336 236.619,378.644 236.088,378.644 235.897 C 378.644 235.707,378.801 235.377,378.993 235.165 C 380.121 233.919,380.119 233.966,380.259 200.173 C 380.384 169.972,380.369 168.383,379.958 167.419 C 377.067 160.643,375.279 158.196,372.033 156.570 C 371.046 156.076,370.180 155.577,370.108 155.460 C 369.862 155.061,361.467 155.200,361.128 155.609 M25.662 159.268 L 24.835 160.168 25.735 159.341 C 26.230 158.886,26.635 158.481,26.635 158.441 C 26.635 158.258,26.432 158.431,25.662 159.268 M19.977 170.486 C 19.979 171.014,20.028 171.202,20.086 170.903 C 20.143 170.605,20.141 170.173,20.081 169.943 C 20.021 169.714,19.974 169.958,19.977 170.486 M127.521 178.044 C 127.521 182.202,127.554 183.902,127.594 181.824 C 127.634 179.745,127.634 176.344,127.594 174.265 C 127.554 172.187,127.521 173.887,127.521 178.044 M265.983 203.599 C 265.983 219.568,266.012 226.136,266.047 218.195 C 266.082 210.254,266.082 197.188,266.047 189.161 C 266.012 181.133,265.983 187.630,265.983 203.599 M19.778 184.163 C 19.778 186.935,19.813 188.036,19.855 186.610 C 19.898 185.184,19.898 182.916,19.855 181.571 C 19.812 180.225,19.777 181.392,19.778 184.163 M127.529 206.239 C 127.529 217.588,127.559 222.196,127.594 216.479 C 127.630 210.761,127.630 201.475,127.594 195.843 C 127.559 190.211,127.529 194.889,127.529 206.239 M19.788 203.239 C 19.788 210.828,19.819 213.932,19.856 210.138 C 19.893 206.344,19.893 200.135,19.856 196.341 C 19.819 192.546,19.788 195.651,19.788 203.239 M181.463 274.168 L 181.404 341.617 181.944 342.074 C 182.483 342.531,182.483 342.531,182.064 342.033 C 181.667 341.562,181.641 337.898,181.584 274.127 L 181.523 206.719 181.463 274.168 M19.977 227.115 C 19.979 227.642,20.028 227.830,20.086 227.532 C 20.143 227.233,20.141 226.801,20.081 226.572 C 20.021 226.342,19.974 226.587,19.977 227.115 M127.520 233.833 C 127.519 237.397,127.553 238.888,127.594 237.147 C 127.635 235.406,127.635 232.491,127.594 230.668 C 127.553 228.846,127.520 230.270,127.520 233.833 M19.977 229.034 C 19.979 229.562,20.028 229.750,20.086 229.451 C 20.143 229.153,20.141 228.721,20.081 228.492 C 20.021 228.262,19.974 228.506,19.977 229.034 M236.226 344.451 C 236.226 353.161,236.256 356.690,236.293 352.292 C 236.329 347.894,236.329 340.768,236.293 336.455 C 236.256 332.143,236.226 335.741,236.226 344.451 M182.367 342.849 C 182.363 343.220,183.460 345.198,184.055 345.891 C 184.282 346.155,184.642 346.717,184.855 347.140 C 185.251 347.922,188.515 351.290,188.878 351.290 C 188.987 351.290,188.218 350.469,187.169 349.467 C 186.119 348.464,185.190 347.411,185.105 347.127 C 185.019 346.843,184.697 346.341,184.389 346.011 C 184.081 345.681,183.655 345.033,183.442 344.571 C 182.825 343.233,182.371 342.505,182.367 342.849 M209.548 343.671 C 209.422 343.836,209.183 344.314,209.016 344.734 C 208.850 345.153,208.499 345.691,208.237 345.929 C 207.974 346.166,207.617 346.701,207.444 347.116 C 207.106 347.924,205.568 349.596,204.199 350.642 C 203.737 350.995,203.479 351.286,203.625 351.287 C 204.162 351.292,207.120 348.312,207.686 347.195 C 208.007 346.562,208.381 345.975,208.518 345.891 C 208.655 345.806,209.037 345.205,209.367 344.554 C 209.947 343.409,210.020 343.053,209.548 343.671 M189.683 351.597 C 190.240 352.011,191.962 352.760,191.962 352.589 C 191.962 352.525,191.449 352.238,190.822 351.951 C 189.222 351.220,189.142 351.195,189.683 351.597 M265.732 358.008 C 265.732 361.506,265.765 362.936,265.806 361.188 C 265.847 359.439,265.847 356.578,265.806 354.829 C 265.765 353.080,265.732 354.511,265.732 358.008 M200.809 352.409 C 200.515 352.766,200.531 352.782,200.960 352.561 C 201.224 352.425,201.602 352.254,201.800 352.181 C 202.047 352.089,202.000 352.042,201.649 352.029 C 201.368 352.018,200.990 352.189,200.809 352.409 M192.624 352.899 C 192.923 352.957,193.355 352.954,193.584 352.894 C 193.813 352.834,193.569 352.787,193.041 352.790 C 192.513 352.793,192.326 352.842,192.624 352.899 M199.103 352.899 C 199.401 352.957,199.833 352.954,200.063 352.894 C 200.292 352.834,200.048 352.787,199.520 352.790 C 198.992 352.793,198.804 352.842,199.103 352.899 " stroke="none" fill="#9c04e4" fill-rule="evenodd"></path><path id="path2" d="M192.801 43.402 C 192.406 43.505,191.866 43.698,191.602 43.831 C 191.338 43.965,190.528 44.375,189.802 44.744 C 188.341 45.485,185.697 47.922,185.120 49.059 C 184.917 49.461,184.656 49.952,184.542 50.150 C 184.428 50.348,184.216 50.780,184.071 51.110 C 183.925 51.440,183.698 51.899,183.565 52.130 C 183.432 52.361,183.215 52.738,183.082 52.969 C 182.949 53.200,182.778 53.551,182.701 53.749 C 182.624 53.947,182.286 54.680,181.949 55.377 L 181.338 56.646 181.517 199.094 C 181.684 331.912,181.724 341.584,182.100 342.157 C 182.736 343.127,183.036 343.661,183.521 344.691 C 183.770 345.219,184.205 345.857,184.488 346.108 C 184.771 346.359,185.003 346.722,185.003 346.913 C 185.003 347.744,188.373 350.755,190.484 351.811 L 192.561 352.849 196.436 352.849 C 199.788 352.849,200.372 352.793,200.774 352.430 C 201.029 352.199,201.466 352.010,201.744 352.010 C 202.023 352.010,202.316 351.905,202.396 351.776 C 202.475 351.648,202.914 351.365,203.372 351.148 C 204.522 350.602,207.010 348.152,207.427 347.156 C 207.616 346.703,207.956 346.179,208.184 345.992 C 208.411 345.804,208.798 345.196,209.044 344.641 C 209.290 344.086,209.597 343.566,209.725 343.487 C 209.853 343.408,209.958 343.150,209.958 342.914 C 209.958 342.679,210.174 342.290,210.438 342.052 C 210.970 341.571,211.225 55.647,210.694 55.319 C 210.571 55.243,209.707 53.641,208.774 51.758 C 206.861 47.897,205.222 45.988,202.759 44.750 C 202.034 44.385,201.116 43.920,200.720 43.716 C 199.913 43.302,194.076 43.070,192.801 43.402 " stroke="none" fill="#4c04e4" fill-rule="evenodd"></path><path id="path3" d="M248.590 8.509 C 248.260 8.703,247.718 8.865,247.385 8.870 C 245.697 8.893,240.895 12.924,239.390 15.580 C 238.973 16.315,238.119 18.037,237.492 19.407 L 236.352 21.897 236.376 197.451 C 236.390 294.006,236.442 373.516,236.492 374.140 C 236.693 376.640,240.055 382.129,242.649 384.192 C 250.718 390.607,261.778 386.236,265.187 375.285 L 265.747 373.485 265.747 211.158 C 265.747 121.878,265.716 42.928,265.679 35.714 L 265.611 22.598 264.934 20.597 C 262.418 13.160,257.213 8.508,251.110 8.241 C 249.730 8.181,249.022 8.256,248.590 8.509 M139.412 134.355 C 135.328 135.452,132.229 138.285,129.867 143.082 C 127.488 147.915,127.660 143.106,127.681 204.319 C 127.699 256.235,127.674 254.410,128.410 256.266 C 134.766 272.287,149.451 272.632,156.167 256.917 L 157.172 254.567 157.110 200.889 L 157.049 147.211 155.249 143.611 C 151.441 135.995,145.733 132.659,139.412 134.355 M33.123 155.298 C 27.103 155.970,20.904 163.513,20.051 171.206 C 19.699 174.382,19.934 229.180,20.307 230.834 C 20.382 231.164,20.489 231.680,20.545 231.980 C 21.187 235.397,26.002 241.531,29.395 243.253 C 31.996 244.573,36.702 244.888,38.705 243.876 C 43.514 241.445,45.848 238.891,48.369 233.301 L 49.428 230.954 49.429 199.978 L 49.430 169.003 47.503 165.116 C 43.831 157.710,39.290 154.610,33.123 155.298 " stroke="none" fill="#6414b4" fill-rule="evenodd"></path><path id="path4" d="M253.629 8.493 C 253.959 8.696,254.421 8.865,254.656 8.870 C 257.677 8.930,262.808 14.573,264.858 20.091 L 265.729 22.436 265.876 98.620 L 266.024 174.805 265.991 98.500 L 265.958 22.196 265.294 20.396 C 263.014 14.225,258.627 9.323,254.709 8.570 C 254.313 8.494,253.773 8.363,253.509 8.279 C 253.173 8.171,253.209 8.235,253.629 8.493 M245.653 9.106 C 241.999 10.931,239.481 13.991,236.976 19.647 L 235.873 22.137 235.932 175.616 L 235.992 329.094 236.112 175.525 L 236.233 21.956 237.040 20.156 C 239.745 14.124,243.080 10.244,246.659 8.964 C 247.167 8.782,247.317 8.659,247.031 8.658 C 246.767 8.658,246.147 8.859,245.653 9.106 M192.279 43.030 C 191.859 43.185,191.436 43.392,191.339 43.491 C 191.242 43.590,190.923 43.671,190.631 43.671 C 190.339 43.671,189.966 43.833,189.802 44.031 C 189.638 44.229,189.341 44.391,189.142 44.391 C 188.638 44.391,184.523 48.466,184.523 48.964 C 184.523 49.188,184.361 49.506,184.163 49.670 C 183.965 49.834,183.803 50.157,183.803 50.387 C 183.803 50.617,183.587 51.080,183.323 51.415 C 183.059 51.751,182.843 52.109,182.843 52.212 C 182.843 52.573,181.855 54.434,181.512 54.719 C 180.869 55.252,181.000 341.528,181.644 342.346 C 181.908 342.682,182.124 343.144,182.124 343.374 C 182.124 343.604,182.286 343.927,182.484 344.091 C 182.681 344.255,182.843 344.571,182.843 344.793 C 182.843 345.015,183.221 345.563,183.683 346.011 C 184.145 346.458,184.523 347.003,184.523 347.220 C 184.523 347.438,184.739 347.812,185.003 348.050 C 185.267 348.289,185.483 348.373,185.483 348.237 C 185.483 348.101,185.321 347.855,185.123 347.690 C 184.925 347.526,184.762 347.270,184.761 347.121 C 184.759 346.972,184.382 346.377,183.921 345.797 C 183.460 345.218,183.083 344.610,183.083 344.447 C 183.083 344.283,182.921 344.016,182.723 343.851 C 182.525 343.687,182.364 343.364,182.364 343.134 C 182.364 342.904,182.148 342.442,181.884 342.106 C 181.134 341.153,181.134 55.907,181.884 54.949 C 182.142 54.619,182.355 54.230,182.358 54.085 C 182.361 53.940,182.618 53.342,182.930 52.756 C 183.241 52.170,183.636 51.426,183.807 51.101 C 183.978 50.776,184.207 50.348,184.317 50.150 C 184.426 49.952,184.668 49.466,184.853 49.070 C 185.365 47.980,188.312 45.259,189.802 44.502 C 190.528 44.134,191.427 43.677,191.800 43.487 C 192.178 43.295,193.663 43.063,195.159 42.962 L 197.840 42.782 195.441 42.765 C 194.121 42.756,192.698 42.875,192.279 43.030 M199.640 43.173 C 200.584 43.360,203.598 44.760,204.294 45.335 C 204.674 45.648,204.731 45.652,204.637 45.360 C 204.575 45.166,203.885 44.693,203.102 44.307 C 202.320 43.921,201.393 43.458,201.043 43.278 C 200.692 43.099,200.045 42.964,199.603 42.979 L 198.800 43.007 199.640 43.173 M205.759 46.551 C 206.274 47.079,206.750 47.510,206.816 47.510 C 206.882 47.510,206.514 47.079,205.999 46.551 C 205.483 46.023,205.008 45.591,204.942 45.591 C 204.876 45.591,205.243 46.023,205.759 46.551 M207.794 49.190 C 208.231 50.048,208.680 50.912,208.790 51.110 C 208.899 51.308,209.450 52.388,210.014 53.509 L 211.038 55.549 211.099 198.540 C 211.150 318.891,211.108 341.592,210.833 341.912 C 210.653 342.121,210.207 342.939,209.840 343.731 C 209.474 344.523,208.879 345.549,208.518 346.011 C 208.158 346.473,207.792 347.078,207.705 347.356 C 207.488 348.053,204.415 350.978,203.438 351.418 C 202.999 351.615,202.478 351.866,202.280 351.976 C 200.977 352.696,200.619 352.840,199.760 352.986 L 198.800 353.149 199.774 353.179 C 200.310 353.196,200.958 353.051,201.214 352.857 C 201.470 352.663,201.855 352.501,202.070 352.497 C 202.285 352.493,202.595 352.328,202.759 352.130 C 202.924 351.932,203.262 351.770,203.511 351.770 C 204.169 351.770,207.722 348.290,208.036 347.339 C 208.179 346.904,208.507 346.358,208.764 346.126 C 209.021 345.893,209.573 344.989,209.991 344.117 C 210.409 343.245,210.896 342.360,211.075 342.151 C 211.645 341.485,211.428 55.166,210.858 54.535 C 210.627 54.280,210.438 53.904,210.438 53.700 C 210.438 53.495,210.276 53.194,210.078 53.029 C 209.880 52.865,209.718 52.543,209.718 52.313 C 209.718 52.083,209.502 51.620,209.238 51.284 C 208.974 50.949,208.758 50.515,208.758 50.321 C 208.758 50.127,208.596 49.834,208.398 49.670 C 208.200 49.506,208.038 49.185,208.038 48.958 C 208.038 48.731,207.804 48.339,207.518 48.088 C 207.081 47.703,207.125 47.879,207.794 49.190 M82.990 90.454 C 82.350 90.987,82.549 91.094,83.339 90.642 C 83.660 90.458,85.260 90.291,87.463 90.210 L 91.062 90.077 87.309 90.030 C 83.889 89.986,83.506 90.024,82.990 90.454 M91.989 90.583 C 92.856 91.035,92.998 91.035,92.621 90.582 C 92.457 90.384,92.093 90.223,91.812 90.223 C 91.370 90.225,91.393 90.273,91.989 90.583 M81.449 91.206 C 81.359 91.352,80.925 91.621,80.484 91.805 C 79.314 92.294,76.620 94.906,76.306 95.856 C 76.160 96.300,75.884 96.792,75.693 96.951 C 75.501 97.109,75.345 97.429,75.345 97.660 C 75.345 97.892,75.183 98.216,74.985 98.380 C 74.787 98.545,74.625 98.867,74.625 99.097 C 74.625 99.327,74.409 99.790,74.145 100.125 C 73.881 100.461,73.665 100.893,73.665 101.085 C 73.665 101.278,73.449 101.710,73.185 102.045 C 72.839 102.485,72.705 103.019,72.705 103.960 C 72.705 104.960,72.593 105.366,72.226 105.699 C 71.747 106.132,71.746 106.438,71.746 202.789 C 71.746 299.001,71.748 299.449,72.226 300.300 C 72.644 301.046,72.705 301.599,72.705 304.649 C 72.705 307.779,72.755 308.206,73.185 308.753 C 73.449 309.088,73.665 309.520,73.665 309.713 C 73.665 309.905,73.881 310.337,74.145 310.672 C 74.409 311.008,74.625 311.420,74.625 311.587 C 74.625 311.755,75.003 312.345,75.465 312.897 C 75.927 313.450,76.305 314.030,76.305 314.186 C 76.305 314.587,79.661 317.859,80.384 318.163 C 80.714 318.302,81.146 318.505,81.344 318.615 C 82.634 319.332,83.382 319.613,83.943 319.588 C 84.425 319.567,84.465 319.534,84.103 319.455 C 83.633 319.351,82.297 318.784,81.584 318.385 C 81.386 318.274,80.900 318.034,80.504 317.852 C 79.737 317.498,76.545 314.311,76.545 313.899 C 76.545 313.764,76.251 313.305,75.891 312.878 C 75.532 312.451,74.722 311.073,74.092 309.816 L 72.945 307.530 72.945 205.193 C 72.945 118.877,72.997 102.798,73.274 102.478 C 73.455 102.270,73.906 101.398,74.277 100.540 C 74.648 99.682,75.049 98.850,75.169 98.691 C 75.288 98.532,75.737 97.669,76.167 96.772 C 77.003 95.028,79.138 92.797,80.823 91.906 C 82.250 91.151,82.501 90.950,82.018 90.945 C 81.795 90.943,81.538 91.061,81.449 91.206 M93.701 91.422 C 94.097 91.684,94.556 91.899,94.720 91.900 C 96.441 91.909,101.860 100.295,102.240 103.539 L 102.381 104.739 102.420 103.530 C 102.459 102.341,102.122 101.387,101.196 100.067 C 100.967 99.740,100.780 99.295,100.780 99.076 C 100.780 98.858,100.618 98.545,100.420 98.380 C 100.222 98.216,100.060 97.842,100.060 97.548 C 100.060 97.255,99.844 96.820,99.580 96.581 C 99.316 96.342,99.100 95.966,99.100 95.745 C 99.100 95.183,95.425 91.662,94.838 91.662 C 94.575 91.662,94.225 91.500,94.061 91.302 C 93.897 91.104,93.587 90.943,93.372 90.943 C 93.121 90.944,93.238 91.115,93.701 91.422 M102.578 205.519 C 102.578 259.232,102.606 281.170,102.639 254.270 C 102.673 227.369,102.673 183.422,102.639 156.609 C 102.606 129.796,102.578 151.806,102.578 205.519 M299.220 108.338 C 299.056 108.536,298.778 108.698,298.604 108.698 C 297.486 108.698,292.262 112.988,292.262 113.906 C 292.262 114.071,291.938 114.805,291.542 115.537 C 291.146 116.269,290.822 117.014,290.822 117.193 C 290.822 117.371,290.660 117.652,290.462 117.816 C 290.264 117.981,290.102 118.299,290.102 118.524 C 290.102 118.749,289.831 119.187,289.499 119.499 L 288.896 120.065 288.959 204.938 C 289.016 281.572,289.059 289.855,289.398 290.257 C 289.605 290.502,290.118 291.418,290.539 292.293 C 290.959 293.168,291.472 294.024,291.678 294.195 C 291.885 294.366,292.225 294.837,292.434 295.242 C 293.758 297.803,298.684 301.182,300.984 301.108 L 301.980 301.076 300.900 300.900 C 297.113 300.285,293.497 296.970,290.345 291.225 L 289.267 289.262 289.187 204.834 C 289.107 121.493,289.112 120.399,289.572 119.891 C 289.829 119.608,290.706 118.001,291.521 116.321 C 293.488 112.269,296.833 108.938,298.936 108.938 C 299.060 108.938,299.296 108.776,299.460 108.578 C 299.705 108.283,300.525 108.218,304.019 108.218 C 307.513 108.218,308.333 108.283,308.578 108.578 C 308.743 108.776,309.018 108.938,309.191 108.938 C 311.838 108.938,316.167 114.141,318.309 119.896 C 318.720 121.000,318.749 124.552,318.893 193.641 L 319.045 266.227 319.030 193.281 C 319.020 138.705,318.947 120.215,318.740 119.856 C 318.588 119.592,317.739 117.893,316.854 116.081 C 315.250 112.798,312.684 109.658,311.606 109.658 C 311.428 109.658,311.008 109.442,310.672 109.178 C 310.337 108.914,309.850 108.698,309.590 108.698 C 309.330 108.698,308.983 108.536,308.818 108.338 C 308.572 108.042,307.727 107.978,304.019 107.978 C 300.312 107.978,299.466 108.042,299.220 108.338 M140.075 133.790 C 140.000 133.865,139.307 134.091,138.536 134.291 C 134.417 135.361,130.532 139.670,128.299 145.644 L 127.623 147.451 127.387 156.449 C 127.250 161.628,127.187 184.391,127.238 210.078 L 127.326 254.709 128.182 256.777 C 130.483 262.341,135.657 268.104,138.263 268.006 C 138.796 267.986,138.795 267.980,138.211 267.802 C 134.845 266.778,130.458 261.692,128.366 256.389 L 127.608 254.469 127.496 217.037 C 127.434 196.449,127.484 172.424,127.606 163.647 L 127.828 147.690 128.521 145.891 C 131.301 138.672,135.393 134.806,141.212 133.900 L 142.412 133.713 141.312 133.683 C 140.707 133.667,140.150 133.715,140.075 133.790 M143.371 133.876 C 143.899 133.986,144.923 134.199,145.646 134.349 C 149.214 135.089,152.629 138.315,155.123 143.301 C 156.116 145.287,156.929 146.757,156.929 146.568 C 156.929 145.586,153.696 139.738,152.406 138.385 C 149.399 135.233,147.259 134.114,143.611 133.785 C 142.481 133.683,142.467 133.689,143.371 133.876 M361.008 155.102 C 358.032 156.431,357.448 156.825,355.661 158.706 C 354.708 159.709,353.929 160.732,353.929 160.979 C 353.929 161.227,353.767 161.563,353.569 161.728 C 353.371 161.892,353.209 162.185,353.209 162.379 C 353.209 162.573,352.993 163.006,352.729 163.342 C 352.466 163.677,352.250 164.140,352.250 164.370 C 352.250 164.600,352.088 164.923,351.890 165.087 C 351.692 165.251,351.530 165.575,351.530 165.807 C 351.530 166.038,351.368 166.362,351.170 166.527 C 350.878 166.769,350.820 167.422,350.862 169.975 L 350.914 173.125 350.989 170.090 C 351.046 167.780,351.148 166.984,351.417 166.761 C 351.611 166.600,351.770 166.278,351.770 166.047 C 351.770 165.815,351.932 165.491,352.130 165.327 C 352.328 165.163,352.490 164.840,352.490 164.610 C 352.490 164.380,352.705 163.917,352.969 163.582 C 353.233 163.246,353.449 162.813,353.449 162.619 C 353.449 162.425,353.611 162.132,353.809 161.968 C 354.007 161.803,354.169 161.466,354.169 161.219 C 354.169 160.645,357.417 157.204,358.368 156.770 C 358.764 156.589,359.250 156.339,359.448 156.213 C 361.047 155.200,362.042 155.009,365.734 155.010 L 369.406 155.010 371.313 155.992 C 372.361 156.532,373.711 157.363,374.312 157.839 L 375.405 158.705 374.456 157.697 C 373.935 157.142,373.382 156.689,373.229 156.689 C 373.076 156.689,372.676 156.473,372.340 156.209 C 372.004 155.945,371.602 155.729,371.446 155.729 C 371.289 155.729,370.887 155.513,370.551 155.249 C 369.783 154.645,362.290 154.529,361.008 155.102 M31.061 155.364 C 26.734 156.731,21.268 163.171,20.095 168.285 C 19.519 170.797,19.141 217.760,19.646 224.115 C 19.735 225.237,19.772 216.491,19.728 204.679 C 19.609 172.491,19.780 168.933,21.624 165.265 C 24.390 159.763,28.144 156.257,32.217 155.372 C 33.333 155.130,33.500 155.048,32.873 155.052 C 32.412 155.054,31.596 155.195,31.061 155.364 M37.084 155.233 C 41.287 156.240,44.935 159.662,47.612 165.110 L 49.428 168.806 49.429 199.929 L 49.430 231.052 48.453 233.283 C 46.334 238.119,43.699 241.198,39.823 243.368 C 38.706 243.993,37.932 244.506,38.104 244.508 C 38.762 244.515,42.373 242.203,43.827 240.843 C 45.652 239.136,47.030 237.078,48.546 233.800 L 49.670 231.368 49.670 199.983 L 49.670 168.599 47.833 164.863 C 45.131 159.368,40.237 154.917,37.027 155.034 L 36.353 155.058 37.084 155.233 M376.119 159.635 C 376.489 160.134,376.966 160.867,377.178 161.265 C 377.955 162.719,379.541 165.952,379.936 166.887 C 380.546 168.331,380.409 232.328,379.793 233.833 C 379.217 235.238,378.186 237.122,377.692 237.672 C 377.455 237.936,377.094 238.483,376.890 238.887 C 376.449 239.760,373.257 242.831,372.790 242.831 C 372.611 242.831,372.336 242.986,372.178 243.176 C 372.021 243.365,371.583 243.588,371.206 243.671 C 370.828 243.754,370.390 243.977,370.233 244.167 C 370.005 244.442,369.114 244.511,365.820 244.511 L 361.692 244.511 359.790 243.534 C 357.789 242.506,354.941 239.989,354.243 238.632 C 354.040 238.236,353.679 237.696,353.442 237.433 C 352.911 236.841,351.770 234.708,351.770 234.307 C 351.770 234.145,351.611 233.880,351.417 233.719 C 351.148 233.496,351.046 232.700,350.989 230.390 L 350.914 227.355 350.862 230.505 C 350.820 233.058,350.878 233.711,351.170 233.953 C 351.368 234.118,351.530 234.441,351.530 234.673 C 351.530 234.905,351.692 235.229,351.890 235.393 C 352.088 235.557,352.250 235.894,352.250 236.141 C 352.250 236.389,352.627 237.010,353.089 237.521 C 353.551 238.032,353.929 238.585,353.929 238.749 C 353.929 239.417,357.610 242.831,359.128 243.571 C 359.961 243.976,360.704 244.408,360.779 244.530 C 360.971 244.840,370.416 244.818,370.608 244.507 C 370.691 244.373,371.102 244.104,371.522 243.909 C 373.582 242.950,377.009 239.996,377.359 238.877 C 377.442 238.611,377.744 238.113,378.029 237.772 C 378.314 237.430,378.851 236.512,379.223 235.732 C 379.594 234.952,380.021 234.097,380.171 233.833 C 380.630 233.027,380.691 167.868,380.233 166.767 C 380.042 166.305,379.822 165.765,379.746 165.567 C 379.670 165.369,379.510 165.045,379.391 164.847 C 379.273 164.649,379.057 164.217,378.912 163.887 C 378.649 163.291,378.498 163.006,377.957 162.088 C 377.802 161.824,377.524 161.284,377.339 160.888 C 377.155 160.492,376.653 159.844,376.225 159.448 L 375.445 158.728 376.119 159.635 M20.062 231.074 C 20.599 236.574,28.040 244.607,32.492 244.492 C 32.992 244.479,32.739 244.366,31.713 244.143 C 27.169 243.157,21.556 236.835,20.281 231.269 L 19.934 229.754 20.062 231.074 M265.985 292.861 C 265.985 325.855,266.013 339.316,266.047 322.776 C 266.081 306.236,266.081 279.241,266.047 262.788 C 266.013 246.335,265.985 259.868,265.985 292.861 M156.689 255.829 C 156.689 256.491,154.182 261.181,153.030 262.673 C 150.445 266.022,147.296 267.897,143.258 268.492 L 141.932 268.688 143.032 268.717 C 144.956 268.768,148.644 267.314,150.587 265.737 C 153.165 263.646,157.629 256.410,156.833 255.613 C 156.753 255.534,156.689 255.631,156.689 255.829 M139.412 268.363 C 139.742 268.564,140.390 268.721,140.852 268.710 L 141.692 268.691 140.852 268.500 C 140.390 268.394,139.742 268.238,139.412 268.152 L 138.812 267.996 139.412 268.363 M318.656 282.304 L 318.536 289.742 317.735 291.365 C 317.294 292.257,316.565 293.428,316.115 293.967 C 315.665 294.506,315.297 295.055,315.297 295.187 C 315.297 296.722,309.500 300.549,306.659 300.890 L 305.099 301.077 306.626 301.108 C 308.079 301.138,308.755 300.929,310.498 299.909 C 310.696 299.794,311.128 299.585,311.458 299.447 C 312.195 299.137,315.537 295.867,315.537 295.455 C 315.537 295.292,315.857 294.793,316.249 294.347 C 316.641 293.901,317.398 292.696,317.932 291.670 L 318.903 289.805 318.840 282.335 L 318.776 274.865 318.656 282.304 M101.750 309.091 C 101.477 309.535,101.021 310.384,100.736 310.978 C 100.451 311.572,99.912 312.412,99.539 312.846 C 99.166 313.279,98.860 313.768,98.860 313.932 C 98.860 314.343,95.518 317.613,94.781 317.923 C 94.451 318.062,94.019 318.268,93.821 318.381 C 93.139 318.770,91.781 319.349,91.302 319.455 C 90.940 319.534,90.980 319.567,91.462 319.588 C 92.023 319.613,92.771 319.332,94.061 318.615 C 94.259 318.505,94.691 318.302,95.021 318.163 C 95.766 317.850,99.100 314.581,99.100 314.164 C 99.100 313.996,99.478 313.440,99.940 312.929 C 100.402 312.418,100.780 311.848,100.780 311.662 C 100.780 311.476,100.967 311.058,101.196 310.731 C 101.798 309.872,102.469 308.508,102.349 308.388 C 102.292 308.331,102.022 308.647,101.750 309.091 M86.213 319.794 C 87.109 319.841,88.513 319.840,89.332 319.793 C 90.151 319.747,89.418 319.709,87.702 319.709 C 85.987 319.710,85.316 319.748,86.213 319.794 M187.275 350.286 C 188.063 351.102,188.886 351.770,189.105 351.770 C 189.324 351.770,189.638 351.932,189.802 352.130 C 189.966 352.328,190.276 352.493,190.491 352.497 C 190.706 352.501,191.091 352.663,191.348 352.857 C 191.604 353.051,192.252 353.196,192.787 353.179 L 193.761 353.149 192.801 352.986 C 191.942 352.840,191.585 352.696,190.282 351.976 C 190.084 351.866,189.598 351.629,189.202 351.448 C 188.806 351.267,187.888 350.598,187.163 349.961 L 185.843 348.803 187.275 350.286 M236.165 367.606 L 236.110 375.165 237.586 378.108 C 239.954 382.828,243.803 386.402,247.074 386.920 C 247.893 387.049,247.854 387.013,246.710 386.584 C 243.023 385.201,240.044 382.326,237.905 378.085 L 236.473 375.247 236.346 367.647 L 236.219 360.048 236.165 367.606 M265.681 369.020 C 265.578 378.256,262.440 383.555,255.347 386.473 C 254.600 386.780,254.208 387.034,254.476 387.037 C 256.125 387.056,259.962 384.438,262.079 381.848 C 265.220 378.007,265.926 375.565,265.816 368.926 L 265.736 364.127 265.681 369.020 " stroke="none" fill="#f2e8f8" fill-rule="evenodd"></path></g></svg>