<?xml version="1.0" standalone="no"?>
<!DOCTYPE svg PUBLIC "-//W3C//DTD SVG 20010904//EN"
 "http://www.w3.org/TR/2001/REC-SVG-20010904/DTD/svg10.dtd">
<svg version="1.0" xmlns="http://www.w3.org/2000/svg"
 width="700.000000pt" height="700.000000pt" viewBox="0 0 700.000000 700.000000"
 preserveAspectRatio="xMidYMid meet">
<metadata>
Created by potrace 1.11, written by Peter Selinger 2001-2013
</metadata>
<g transform="translate(0.000000,700.000000) scale(0.100000,-0.100000)"
fill="#000000" stroke="none">
<path d="M4365 6862 c-6 -7 -31 -13 -57 -15 -9 -1 -15 -4 -12 -8 2 -4 -6 -9
-17 -12 -13 -4 -18 -10 -13 -18 4 -7 3 -10 -4 -5 -6 3 -17 -3 -25 -14 -7 -11
-17 -17 -20 -13 -4 3 -7 -1 -7 -10 0 -9 -5 -17 -11 -17 -5 0 -8 -4 -5 -9 3 -5
-1 -12 -9 -15 -8 -3 -14 -9 -13 -13 1 -4 -3 -18 -10 -29 -6 -12 -8 -24 -5 -28
3 -3 2 -6 -4 -6 -6 0 -14 -7 -17 -16 -4 -10 -2 -13 7 -8 9 6 9 4 -1 -8 -16
-20 -18 -6198 -2 -6198 6 0 10 -9 10 -20 0 -11 5 -20 11 -20 5 0 7 -4 4 -10
-3 -5 -1 -10 5 -10 7 0 10 -7 6 -15 -3 -9 0 -15 9 -15 14 0 19 -12 16 -32 0
-5 6 -8 14 -8 8 0 15 -7 15 -16 0 -8 4 -13 9 -10 5 3 12 -1 15 -10 3 -8 10
-13 14 -10 5 3 15 -4 22 -14 10 -14 17 -16 26 -9 8 7 15 6 20 -2 5 -8 3 -9 -6
-4 -8 5 -11 4 -7 -2 8 -12 96 -11 116 1 11 7 12 6 5 -5 -5 -10 0 -8 19 4 15 9
27 14 27 10 0 -4 6 1 13 12 8 10 19 15 26 11 6 -4 11 -4 10 1 -3 20 2 33 14
31 6 -2 11 2 10 9 -2 6 6 15 17 18 11 4 18 11 15 16 -4 5 -1 9 6 9 7 0 10 3 6
6 -3 4 0 13 8 21 8 8 15 23 15 34 0 10 4 19 9 19 5 0 9 12 10 28 5 68 3 6160
-1 6187 -3 17 -10 29 -16 28 -5 -1 -8 7 -5 17 3 11 0 20 -6 20 -6 0 -11 8 -11
18 0 20 -52 82 -69 82 -7 0 -9 4 -6 10 13 21 -150 81 -170 62z"/>
<path d="M3355 6240 c-4 -6 -11 -8 -16 -5 -5 4 -12 -1 -15 -9 -3 -9 -10 -13
-15 -11 -13 9 -80 -67 -86 -97 -3 -15 -9 -25 -14 -22 -5 3 -9 -1 -9 -8 0 -7
-6 -24 -13 -38 -11 -20 -13 -494 -11 -2525 1 -1375 3 -2509 5 -2520 2 -11 10
-24 17 -28 6 -4 12 -14 12 -21 0 -8 7 -16 15 -20 9 -3 12 -12 8 -23 -3 -10 -3
-15 1 -12 9 8 54 -33 49 -43 -2 -5 5 -8 16 -8 12 0 21 -4 21 -10 0 -5 9 -10
19 -10 11 0 22 -4 25 -8 9 -15 139 -6 173 11 18 10 35 17 38 17 9 -1 60 64 92
116 l30 50 1 2500 1 2499 -26 58 c-15 31 -31 57 -35 57 -5 0 -7 4 -4 9 8 12
-66 85 -90 89 -10 2 -20 8 -22 13 -5 12 -159 11 -167 -1z"/>
<path d="M1443 5415 c-13 -5 -23 -13 -23 -18 0 -4 -4 -5 -10 -2 -5 3 -10 1
-10 -6 0 -7 -3 -10 -6 -6 -7 7 -54 -46 -54 -62 0 -6 -4 -11 -9 -11 -9 0 -27
-40 -22 -49 2 -2 -1 -7 -6 -10 -4 -3 -13 -15 -19 -26 -14 -26 -16 -3625 -2
-3625 6 0 8 -7 4 -15 -3 -8 -1 -15 4 -15 6 0 10 -4 10 -10 0 -13 41 -72 71
-101 24 -25 57 -44 72 -41 4 1 7 -2 7 -7 0 -4 36 -9 80 -10 75 -2 113 8 132
34 4 6 8 6 8 2 0 -4 16 8 36 27 20 19 33 39 30 44 -3 6 1 13 10 16 8 3 20 19
25 36 6 16 14 30 18 30 4 0 8 813 8 1806 l0 1807 -39 76 c-21 42 -38 72 -38
68 0 -5 -12 5 -26 22 -14 17 -30 29 -35 25 -5 -3 -9 -1 -9 4 0 5 -10 13 -22
17 -34 11 -160 11 -185 0z"/>
<path d="M5213 5090 c-18 -11 -33 -17 -33 -14 0 4 -10 -6 -22 -22 -13 -16 -28
-35 -35 -42 -6 -7 -17 -28 -24 -47 -7 -19 -16 -35 -20 -35 -4 0 -10 -12 -13
-26 -4 -15 -7 -691 -7 -1502 0 -1323 1 -1478 15 -1494 9 -10 16 -23 16 -29 0
-11 4 -17 55 -76 20 -23 46 -45 58 -49 12 -4 25 -11 28 -16 4 -6 40 -10 81
-10 56 0 85 5 116 21 44 22 102 78 102 99 0 6 5 12 10 12 6 0 10 7 10 15 0 8
5 15 12 15 6 0 8 3 5 7 -4 3 -1 13 5 21 18 22 19 2946 1 2985 -8 15 -11 27 -8
27 2 0 -2 8 -10 18 -8 9 -14 20 -13 23 2 3 -3 13 -11 22 -7 10 -10 17 -7 17
13 0 -87 82 -111 91 -46 17 -165 11 -200 -11z"/>
<path d="M2529 4666 c-3 -3 -25 -7 -49 -10 -67 -7 -79 -10 -103 -31 -12 -11
-26 -20 -32 -20 -5 -1 -9 -6 -7 -13 1 -7 -5 -12 -13 -12 -8 0 -15 -7 -15 -15
0 -8 -5 -15 -11 -15 -5 0 -8 -4 -5 -9 3 -5 -1 -12 -10 -15 -8 -3 -12 -10 -9
-16 3 -5 1 -10 -5 -10 -6 0 -8 -4 -5 -10 3 -5 1 -10 -5 -10 -7 0 -10 -7 -6
-15 3 -8 1 -15 -3 -15 -5 0 -12 -7 -15 -16 -4 -10 -2 -13 7 -8 9 5 9 4 0 -7
-18 -19 -19 -1879 -1 -1897 7 -7 8 -12 4 -12 -5 0 -3 -7 4 -15 7 -8 9 -15 6
-15 -4 0 0 -7 9 -16 9 -9 14 -23 11 -31 -3 -8 -2 -12 3 -9 5 3 15 -2 22 -11
12 -14 12 -16 0 -8 -10 5 -12 4 -7 -3 4 -7 14 -12 22 -12 8 0 12 -4 9 -10 -3
-5 -1 -10 5 -10 6 0 9 -4 5 -9 -3 -5 5 -11 17 -13 13 -2 23 -8 23 -15 0 -6 4
-15 9 -20 5 -5 6 -3 2 5 -4 7 -1 12 8 12 9 0 16 -6 16 -13 0 -7 10 -13 23 -14
12 -1 38 -2 57 -3 48 -2 79 6 103 27 15 13 18 14 13 3 -5 -8 5 0 22 18 16 17
35 32 41 32 7 0 9 5 6 10 -3 6 1 13 9 16 9 3 13 10 10 15 -3 5 0 9 5 9 6 0 11
6 11 14 0 8 4 16 10 18 5 2 11 12 13 23 2 11 8 29 13 40 16 30 12 1901 -3
1898 -7 -2 -10 4 -7 12 4 9 1 22 -6 30 -7 8 -10 15 -6 15 4 0 0 10 -9 23 -8
13 -12 27 -8 30 3 4 -1 7 -10 7 -18 0 -40 33 -30 44 3 3 -1 6 -9 6 -9 0 -19 7
-22 16 -4 9 -9 14 -13 11 -3 -4 -13 1 -22 11 -9 9 -25 19 -36 20 -11 2 -23 8
-26 13 -3 5 -7 7 -10 5z"/>
<path d="M520 4270 c-7 -10 -17 -17 -22 -14 -4 3 -8 1 -8 -5 0 -5 -9 -13 -21
-16 -11 -4 -28 -20 -38 -36 -10 -16 -21 -26 -25 -22 -4 4 -4 0 0 -10 3 -10 1
-17 -5 -17 -6 0 -11 -7 -11 -15 0 -8 -5 -15 -11 -15 -6 0 -9 -7 -5 -15 3 -8 1
-15 -5 -15 -6 0 -8 -4 -4 -9 3 -5 1 -12 -5 -16 -6 -4 -8 -10 -5 -15 3 -5 2
-11 -3 -13 -4 -3 -7 -251 -7 -552 0 -438 3 -548 14 -554 7 -5 12 -12 12 -17
-1 -18 11 -44 20 -44 6 0 8 -4 4 -9 -7 -12 100 -123 109 -114 3 4 6 1 6 -6 0
-7 4 -9 10 -6 5 3 10 1 10 -5 0 -6 5 -8 10 -5 6 4 19 4 28 0 21 -9 82 -13 82
-5 0 3 10 7 22 7 13 1 28 9 34 18 6 8 16 15 23 15 6 0 11 4 11 10 0 5 6 7 14
4 8 -3 16 3 19 16 4 14 10 19 18 15 7 -5 10 -3 7 6 -2 7 4 22 14 33 10 11 18
26 18 33 0 8 4 12 8 9 8 -5 10 1 14 44 1 11 6 20 10 20 4 0 8 248 8 550 0 380
-3 550 -11 550 -5 0 -8 4 -5 8 3 5 -8 34 -24 65 -15 30 -26 58 -23 61 4 3 -1
6 -10 6 -8 0 -19 9 -22 20 -4 11 -11 18 -16 15 -5 -4 -9 -1 -9 5 0 6 -4 8 -10
5 -5 -3 -10 1 -10 10 0 9 -4 13 -10 10 -5 -3 -10 -1 -10 6 0 7 -3 9 -7 6 -3
-4 -15 1 -26 10 -15 13 -18 14 -12 3 7 -12 6 -13 -6 -4 -21 16 -79 17 -79 2 0
-10 -2 -10 -9 1 -6 10 -10 10 -16 1 -5 -8 -10 -9 -14 -1 -5 7 -12 4 -21 -9z"/>
<path d="M6290 4268 c-53 -30 -79 -58 -108 -113 -14 -27 -26 -52 -27 -55 0 -3
-5 -12 -10 -20 -13 -21 -14 -1137 -1 -1170 6 -14 15 -28 21 -32 5 -4 6 -8 1
-8 -5 0 1 -11 14 -25 13 -14 20 -25 16 -25 -17 0 68 -73 102 -87 53 -23 159
-23 200 0 17 11 32 16 32 13 0 -3 17 13 38 35 20 23 37 45 37 49 0 3 8 14 18
24 15 16 19 24 16 42 0 4 4 10 10 14 8 5 12 169 12 578 1 526 -1 574 -17 609
-10 21 -21 40 -25 43 -3 3 -10 16 -14 30 -10 31 -74 94 -100 98 -11 2 -21 8
-23 13 -2 5 -38 9 -80 8 -58 0 -86 -5 -112 -21z"/>
</g>
</svg>
